<?xml version="1.0" encoding="UTF-8" standalone="no"?>
<!-- Created with Inkscape (http://www.inkscape.org/) -->

<svg
   xmlns:dc="http://purl.org/dc/elements/1.1/"
   xmlns:cc="http://creativecommons.org/ns#"
   xmlns:rdf="http://www.w3.org/1999/02/22-rdf-syntax-ns#"
   xmlns:svg="http://www.w3.org/2000/svg"
   xmlns="http://www.w3.org/2000/svg"
   xmlns:sodipodi="http://sodipodi.sourceforge.net/DTD/sodipodi-0.dtd"
   xmlns:inkscape="http://www.inkscape.org/namespaces/inkscape"
   width="512"
   height="512"
   viewBox="0 0 512.00001 512.00001"
   id="svg2"
   version="1.1"
   inkscape:version="0.91 r13725"
   sodipodi:docname="icon.svg">
  <defs
     id="defs4" />
  <sodipodi:namedview
     id="base"
     pagecolor="#ffffff"
     bordercolor="#666666"
     borderopacity="1.0"
     inkscape:pageopacity="0.0"
     inkscape:pageshadow="2"
     inkscape:zoom="0.98994949"
     inkscape:cx="183.55058"
     inkscape:cy="376.88093"
     inkscape:document-units="px"
     inkscape:current-layer="layer1"
     showgrid="false"
     units="px"
     borderlayer="false"
     inkscape:window-width="1920"
     inkscape:window-height="1056"
     inkscape:window-x="3840"
     inkscape:window-y="651"
     inkscape:window-maximized="1" />
  <metadata
     id="metadata7">
    <rdf:RDF>
      <cc:Work
         rdf:about="">
        <dc:format>image/svg+xml</dc:format>
        <dc:type
           rdf:resource="http://purl.org/dc/dcmitype/StillImage" />
        <dc:title />
      </cc:Work>
    </rdf:RDF>
  </metadata>
  <g
     inkscape:label="Layer 1"
     inkscape:groupmode="layer"
     id="layer1"
     transform="translate(0,-540.36216)">
    <ellipse
       style="fill:#8d0000;fill-rule:evenodd;stroke:#000000;stroke-width:5;stroke-linecap:butt;stroke-linejoin:round;stroke-opacity:1;fill-opacity:1;stroke-miterlimit:4;stroke-dasharray:none"
       id="path3336"
       cx="259.60919"
       cy="797.29865"
       rx="241.42645"
       ry="240.92139" />
    <ellipse
       style="fill:#ffffff;fill-opacity:1;fill-rule:evenodd;stroke:#000000;stroke-width:4.51789474;stroke-linecap:butt;stroke-linejoin:round;stroke-miterlimit:4;stroke-dasharray:none;stroke-opacity:1"
       id="path3336-3"
       cx="258.09393"
       cy="797.88495"
       rx="215.90862"
       ry="219.94923" />
    <g
       transform="scale(0.98817883,1.0119626)"
       style="font-style:normal;font-weight:normal;font-size:37.29884338px;line-height:125%;font-family:sans-serif;letter-spacing:0px;word-spacing:0px;fill:#000000;fill-opacity:1;stroke:#ff0000;stroke-width:9.32471085;stroke-linecap:square;stroke-linejoin:bevel;stroke-miterlimit:4;stroke-dasharray:none;stroke-opacity:1"
       id="text4161">
      <path
         d="m 50.393091,742.75824 70.959769,0 0,19.8742 -44.665726,0 0,18.98634 42.002176,0 0,19.8742 -42.002176,0 0,43.23151 -26.294043,0 0,-101.96625 z"
         style="font-style:normal;font-variant:normal;font-weight:bold;font-stretch:normal;font-size:139.87065125px;font-family:sans-serif;-inkscape-font-specification:'sans-serif Bold';stroke:#ff0000;stroke-width:9.32471085;stroke-linecap:square;stroke-linejoin:bevel;stroke-miterlimit:4;stroke-dasharray:none;stroke-opacity:1"
         id="path4193" />
      <path
         d="m 146.00779,742.75824 26.29404,0 0,82.09205 46.16825,0 0,19.8742 -72.46229,0 0,-101.96625 z"
         style="font-style:normal;font-variant:normal;font-weight:bold;font-stretch:normal;font-size:139.87065125px;font-family:sans-serif;-inkscape-font-specification:'sans-serif Bold';stroke:#ff0000;stroke-width:9.32471085;stroke-linecap:square;stroke-linejoin:bevel;stroke-miterlimit:4;stroke-dasharray:none;stroke-opacity:1"
         id="path4195" />
      <path
         d="m 276.72676,759.96888 q -12.02014,0 -18.64487,8.87851 -6.62473,8.87851 -6.62473,24.99642 0,16.04961 6.62473,24.92812 6.62473,8.8785 18.64487,8.8785 12.08843,0 18.71316,-8.8785 6.62473,-8.87851 6.62473,-24.92812 0,-16.11791 -6.62473,-24.99642 -6.62473,-8.87851 -18.71316,-8.87851 z m 0,-19.05464 q 24.58663,0 38.51906,14.06902 13.93243,14.06902 13.93243,38.86055 0,24.72323 -13.93243,38.79225 -13.93243,14.06902 -38.51906,14.06902 -24.51835,0 -38.51907,-14.06902 -13.93243,-14.06902 -13.93243,-38.79225 0,-24.79153 13.93243,-38.86055 14.00072,-14.06902 38.51907,-14.06902 z"
         style="font-style:normal;font-variant:normal;font-weight:bold;font-stretch:normal;font-size:139.87065125px;font-family:sans-serif;-inkscape-font-specification:'sans-serif Bold';stroke:#ff0000;stroke-width:9.32471085;stroke-linecap:square;stroke-linejoin:bevel;stroke-miterlimit:4;stroke-dasharray:none;stroke-opacity:1"
         id="path4197" />
      <path
         d="m 340.31054,742.75824 25.2013,0 17.62042,74.10139 17.48383,-74.10139 25.3379,0 17.48383,74.10139 17.62043,-74.10139 24.99641,0 -24.04027,101.96625 -30.32352,0 -18.50827,-77.51621 -18.30339,77.51621 -30.32352,0 -24.24515,-101.96625 z"
         style="font-style:normal;font-variant:normal;font-weight:bold;font-stretch:normal;font-size:139.87065125px;font-family:sans-serif;-inkscape-font-specification:'sans-serif Bold';stroke:#ff0000;stroke-width:9.32471085;stroke-linecap:square;stroke-linejoin:bevel;stroke-miterlimit:4;stroke-dasharray:none;stroke-opacity:1"
         id="path4199" />
    </g>
  </g>
</svg>
